# xmcd CD database file generated by Grip 3.0.7
# 
# Track frame offsets:
#       183
#       13748
#       24200
#       35475
#       51068
#       65050
#       78660
#       89400
#       101653
#       113350
#       127128
#       138290
#       148715
#       160315
#       172253
#       184805
#       206773
#       216903
#       229908
#       240120
# 
# Disc length: 3370 seconds
# 
# Revision: 5
# Processed by: cddbd v1.5.1PL0 Copyright (c) Steve Scherf et al.
# Submitted via: Grip 3.0.7
# 
DISCID=1d0d2814
DTITLE=Various Artist - Blues Gems - Vol. 2
DYEAR=1989
DGENRE=Blues
TTITLE0=Sonny Boy Williamson - Nine Below Zero
TTITLE1=Rosco Gordon - Just Love Me Baby
TTITLE2=Big Ed Burns - Biscuit Backing Mama
TTITLE3=Eddie Boyd - 24 Hours
TTITLE4=Willie Dixon - Bring It On Home
TTITLE5=Luther Allison - You Don't Love Me Baby
TTITLE6=Jimmy Reed - Aw Shucks, Hush Your Mouth
TTITLE7=Billy Boy Arnold - I Wish You Would
TTITLE8=J.B. Lenoir - Natural Man
TTITLE9=Mattew' Boogie Jake Jacobs - Bad Luck And Trouble
TTITLE10=B.B. King - Tickle Britches
TTITLE11=Howlin' Wolf - Who's Bee Talkin'
TTITLE12=Otis Rush - Jump Sister Bessie
TTITLE13=Memphis Slim - Really Got The Blues
TTITLE14=Little Walter - Key To The Highway
TTITLE15=Elmore James - Something Inside Me
TTITLE16=John Lee Hooker - Dimples
TTITLE17=Alden "Tarheel Slim" Bunn - Number Nine Blues
TTITLE18=Champion Jack Dupree - Shake Baby Shake
TTITLE19=Muddy Waters - I'm Ready
EXTD=Green Line - CD5VIN04
EXTT0=
EXTT1=
EXTT2=
EXTT3=
EXTT4=
EXTT5=
EXTT6=
EXTT7=
EXTT8=
EXTT9=
EXTT10=
EXTT11=
EXTT12=
EXTT13=
EXTT14=
EXTT15=
EXTT16=
EXTT17=
EXTT18=
EXTT19=
PLAYORDER=
